HIERARCHY
ROOT Hips
{
	OFFSET 0.00000 0.00000 0.00000
	CHANNELS 6 Xposition Yposition Zposition Zrotation Yrotation Xrotation 
	JOINT LHipJoint
	{
		OFFSET 0 0 0
		CHANNELS 3 Zrotation Yrotation Xrotation
		JOINT LeftHip
		{
			OFFSET 1.56857 -1.73443 1.15205
			CHANNELS 3 Zrotation Yrotation Xrotation
			JOINT LeftKnee
			{
				OFFSET 2.39362 -6.57643 0.00000
				CHANNELS 3 Zrotation Yrotation Xrotation
				JOINT LeftAnkle
				{
					OFFSET 2.50952 -6.89485 0.00000
					CHANNELS 3 Zrotation Yrotation Xrotation
					JOINT LeftToe
					{
						OFFSET 0.17171 -0.47178 1.88682
						CHANNELS 3 Zrotation Yrotation Xrotation
						End Site
						{
							OFFSET 0.00000 -0.00000 0.98146
						}
					}
				}
			}
		}
	}
	JOINT RHipJoint
	{
		OFFSET 0 0 0
		CHANNELS 3 Zrotation Yrotation Xrotation
		JOINT RightHip
		{
			OFFSET -1.28153 -1.73443 1.15205
			CHANNELS 3 Zrotation Yrotation Xrotation
			JOINT RightKnee
			{
				OFFSET -2.26861 -6.23296 0.00000
				CHANNELS 3 Zrotation Yrotation Xrotation
				JOINT RightAnkle
				{
					OFFSET -2.54143 -6.98254 0.00000
					CHANNELS 3 Zrotation Yrotation Xrotation
					JOINT RightToe
					{
						OFFSET -0.23309 -0.64041 1.93119
						CHANNELS 3 Zrotation Yrotation Xrotation
						End Site
						{
							OFFSET -0.00000 -0.00000 1.02013
						}
					}
				}
			}
		}
	}
	JOINT lowerback
	{
		OFFSET 0 0 0
		CHANNELS 3 Zrotation Yrotation Xrotation
		JOINT Chest
		{
			OFFSET -0.07096 2.10460 -0.27878
			CHANNELS 3 Zrotation Yrotation Xrotation
			JOINT Chest2
			{
				OFFSET -0.00826 2.13662 -0.08279
				CHANNELS 3 Zrotation Yrotation Xrotation
				JOINT lowerneck
				{
					OFFSET 0 0 0
					CHANNELS 3 Zrotation Yrotation Xrotation
					JOINT Neck
					{
						OFFSET 0.03239 1.77799 0.24435
						CHANNELS 3 Zrotation Yrotation Xrotation
						JOINT Head
						{
							OFFSET 0.01026 1.74194 -0.49664
							CHANNELS 3 Zrotation Yrotation Xrotation
							End Site
							{
								OFFSET 0.00170 1.83057 -0.19653
							}
						}
					}
				}
				JOINT LeftCollar
				{
					OFFSET 0 0 0
					CHANNELS 3 Zrotation Yrotation Xrotation
					JOINT LeftShoulder
					{
						OFFSET 3.19178 1.35907 -0.31412
CHANNELS 3 Zrotation Xrotation Yrotation
						JOINT LeftElbow
						{
OFFSET 0 -4.852470 -0.000000
CHANNELS 3 Zrotation Xrotation Yrotation
							JOINT LeftWrist
							{
OFFSET 0 -3.555840 0.000000
CHANNELS 3 Zrotation Xrotation Yrotation
								JOINT lhand
								{
									OFFSET 0 0 0
CHANNELS 3 Zrotation Xrotation Yrotation
									JOINT LFingers
									{
OFFSET 0 -0.693200 0.000000
CHANNELS 3 Zrotation Xrotation Yrotation
										End Site
										{
OFFSET 0 -0.558880 0.000000
										}
									}
								}
								JOINT LThumb
								{
OFFSET 0 0.000000 0.000000
CHANNELS 3 Zrotation Xrotation Yrotation
									End Site
									{
OFFSET 0 -0.567410 0.567410
									}
								}
							}
						}
					}
				}
				JOINT RightCollar
				{
					OFFSET 0 0 0
					CHANNELS 3 Zrotation Yrotation Xrotation
					JOINT RightShoulder
					{
						OFFSET -3.28999 1.24191 -0.26899
CHANNELS 3 Zrotation Xrotation Yrotation
						JOINT RightElbow
						{
OFFSET 0 -4.644620 0.000000
CHANNELS 3 Zrotation Xrotation Yrotation
							JOINT RightWrist
							{
OFFSET 0 -3.407030 0.000000
CHANNELS 3 Zrotation Xrotation Yrotation
								JOINT rhand
								{
									OFFSET 0 0 0
CHANNELS 3 Zrotation Xrotation Yrotation
									JOINT RFingers
									{
OFFSET 0 -0.619580 0.000000
CHANNELS 3 Zrotation Xrotation Yrotation
										End Site
										{
OFFSET 0 -0.499520 0.000000
										}
									}
								}
								JOINT RThumb
								{
OFFSET 0 0.000000 0.000000
CHANNELS 3 Zrotation Xrotation Yrotation
									End Site
									{
OFFSET 0 -0.507150 0.507150
									}
								}
							}
						}
					}
				}
			}
		}
	}
}
MOTION
Frames: 7
Frame Time: 0.008333333333333333
-29.018900 16.996400 1.181500 26.391000 83.137000 26.420900 0.000000 0.000000 0.000000 0.000000 0.000000 0.000000 0.000000 0.000000 0.000000 0.000000 0.000000 0.000000 0.000000 0.000000 0.000000 0.000000 0.000000 0.000000 0.000000 0.000000 0.000000 0.000000 0.000000 0.000000 -0.000000 -0.000000 0.000000 -0.000000 -0.000000 0.000000 -4.925900 1.626700 1.305200 -1.043100 2.146600 1.100500 1.661500 1.058400 0.259700 4.103200 2.510600 -22.239100 -1.300700 2.648800 24.525600 -0.718600 1.475300 11.807100 -0.000000 0.000000 0.000000 90.000000 0.000000 0.000000 -0.000000 0.000000 0.000000 -0.000000 0.000000 -0.000000 0.000000 0.000000 0.000000 -0.000000 -0.000000 -0.000000 -0.000000 0.000000 -0.000000 -0.000000 0.000000 0.000000 -90.000000 0.000000 -0.000000 0.000000 0.000000 -0.000000 0.000000 0.000000 -0.000000 0.000000 0.000000 0.000000 0.000000 -0.000000 0.000000 0.000000 0.000000 0.000000
-29.014626 16.999174 1.183760 23.576424 83.199574 23.594626 0.000000 0.000000 0.000000 0.000000 0.000000 0.000000 0.000000 0.000000 0.000000 0.000000 0.000000 0.000000 0.000000 0.000000 0.000000 0.000000 0.000000 0.000000 0.000000 0.000000 0.000000 0.000000 0.000000 0.000000 0.000000 0.000000 0.000000 0.000000 0.000000 0.000000 -4.632321 1.706057 1.384990 -0.949532 2.243649 1.000090 1.587673 1.111564 0.112253 4.401014 2.520474 -22.173216 -1.550512 2.625391 24.361920 -0.866119 1.457601 11.739337 0.000000 0.000000 0.000000 90.000000 0.000000 0.000000 0.000000 0.000000 0.000000 0.000000 0.000000 0.000000 0.000000 0.000000 0.000000 0.000000 0.000000 0.000000 0.000000 0.000000 0.000000 0.000000 0.000000 0.000000 -90.000000 0.000000 0.000000 0.000000 0.000000 0.000000 0.000000 0.000000 0.000000 0.000000 0.000000 0.000000 0.000000 0.000000 0.000000 0.000000 0.000000 0.000000
-29.012378 16.999031 1.179686 25.119155 83.156682 25.294758 0.000000 0.000000 0.000000 -17.056230 1.041143 13.220328 0.028869 -1.096954 -3.015616 0.120440 11.306278 -17.707606 0.455716 -4.330399 -12.008031 0.000000 0.000000 0.000000 7.858197 -5.486908 5.211780 -0.032800 -1.169265 3.214665 -0.484414 6.377146 -12.505878 -0.003506 0.360340 -0.990010 -4.770618 1.680075 1.286356 -1.000848 2.206663 0.820723 1.612444 1.097660 -0.017525 4.417153 2.514983 -22.099306 -1.616184 2.636530 24.367076 -0.891978 1.456469 11.728528 0.000000 0.000000 0.000000 2.391600 -2.143638 -38.934297 10.633158 -17.723779 1.662524 15.598613 10.405841 25.288161 0.000000 0.000000 0.000000 -7.125000 0.000000 0.000000 -8.518067 4.097789 -7.978269 0.000000 0.000000 0.000000 -2.786238 0.356082 43.500597 -15.053883 -24.221112 -3.248077 -10.106899 11.254854 32.516941 0.000000 0.000000 0.000000 7.125000 0.000000 0.000000 25.897842 61.011731 -10.502777
-29.011569 17.002079 1.178473 24.382413 83.172529 24.602579 0.000000 0.000000 0.000000 -16.943878 1.036560 13.220534 0.029940 -1.117179 -3.071295 0.099370 11.432515 -17.602894 0.526359 -4.645650 -12.901283 0.000000 0.000000 0.000000 7.956021 -5.499090 5.135556 -0.033392 -1.179219 3.242093 -0.484560 6.403531 -12.511629 -0.000575 0.104284 -0.286568 -4.713567 1.672973 1.324677 -0.918965 2.190073 0.720166 1.661765 1.092771 -0.142475 4.298897 2.528699 -22.126007 -1.630051 2.697741 24.314901 -0.867226 1.469530 11.713770 0.000000 0.000000 0.000000 2.221769 -2.164417 -38.691549 10.549056 -17.593832 1.637017 16.133222 10.256504 25.825471 0.000000 0.000000 0.000000 -7.125000 0.000000 0.000000 -8.232512 3.477245 -7.800693 0.000000 0.000000 0.000000 -2.970485 0.433623 43.666633 -15.067598 -24.240225 -3.253679 -10.233595 11.053983 32.038255 0.000000 0.000000 0.000000 7.125000 0.000000 0.000000 25.333796 60.616576 -10.017289
-29.009420 16.999825 1.179036 26.015887 83.058890 26.422511 0.000000 0.000000 0.000000 -17.202926 0.958091 13.051550 0.030919 -1.134976 -3.120385 0.103704 11.403149 -17.620624 0.484005 -4.460984 -12.377375 0.000000 0.000000 0.000000 7.759597 -5.194890 5.016690 -0.032869 -1.170428 3.217806 -0.492956 6.189996 -12.587888 -0.000694 0.135246 -0.371591 -4.980276 1.675241 1.220712 -0.970877 2.189403 0.525439 1.756508 1.098325 -0.292061 4.291304 2.512162 -22.145716 -1.605619 2.672284 24.392375 -0.860789 1.461966 11.745964 0.000000 0.000000 0.000000 2.205505 -2.132184 -38.760117 10.439575 -17.424156 1.604083 15.909843 10.457210 25.187338 0.000000 0.000000 0.000000 -7.125000 0.000000 0.000000 -8.321580 4.154483 -7.781160 0.000000 0.000000 0.000000 -3.006125 0.549568 43.606801 -15.207033 -24.433512 -3.311207 -9.528865 9.864635 32.617397 0.000000 0.000000 0.000000 7.125000 0.000000 0.000000 26.594430 60.959616 -10.779724
-29.003883 17.011994 1.180244 22.552090 83.373517 22.701087 0.000000 0.000000 0.000000 -16.626274 0.936743 13.437679 0.032579 -1.165472 -3.204272 0.121164 11.354661 -17.778419 0.452984 -4.317560 -11.971877 0.000000 0.000000 0.000000 8.268735 -5.679829 5.255473 -0.031966 -1.154900 3.175197 -0.479107 6.441727 -12.449722 -0.005398 0.472733 -1.298976 -4.479688 1.651649 1.581501 -0.795013 2.140374 0.514247 1.647368 1.076929 -0.491413 3.995035 2.529949 -22.252176 -1.225627 2.684218 24.342236 -0.667158 1.487783 11.737062 0.000000 0.000000 0.000000 2.119290 -2.112991 -38.701078 10.458302 -17.453290 1.609696 15.121923 11.118804 25.114344 0.000000 0.000000 0.000000 -7.125000 0.000000 0.000000 -8.796745 4.340608 -8.205034 0.000000 0.000000 0.000000 -3.020615 0.622037 43.482890 -15.014583 -24.166390 -3.231880 -9.918529 11.119929 32.116014 0.000000 0.000000 0.000000 7.125000 0.000000 0.000000 25.729547 60.610868 -10.182578
-28.999779 17.013967 1.177217 24.147810 83.363871 24.463314 0.000000 0.000000 0.000000 -16.883883 0.861502 13.311992 0.034483 -1.197929 -3.293461 0.086895 11.518083 -17.556267 0.475972 -4.424697 -12.274700 0.000000 0.000000 0.000000 8.122724 -5.434417 5.207340 -0.030738 -1.132239 3.112657 -0.488828 6.166985 -12.534592 -0.000413 0.126191 -0.346743 -4.590165 1.609891 1.337530 -0.882722 2.095508 0.453141 1.626573 1.054129 -0.415222 4.103693 2.600107 -22.302699 -1.245753 2.736733 24.118963 -0.684416 1.514125 11.665030 0.000000 0.000000 0.000000 2.239367 -2.169236 -38.922451 10.518075 -17.545817 1.627625 15.075857 10.598116 25.553574 0.000000 0.000000 0.000000 -7.125000 0.000000 0.000000 -8.853822 3.905415 -8.332163 0.000000 0.000000 0.000000 -2.980220 0.507107 43.443937 -14.852690 -23.940439 -3.165916 -10.081130 11.069920 31.271927 0.000000 0.000000 0.000000 7.125000 0.000000 0.000000 24.827664 59.895110 -9.373327
